<svg width="256" height="135" viewBox="0 0 256 135" fill="none" xmlns="http://www.w3.org/2000/svg">
<path d="M57.0762 134.581C56.5239 134.581 56.0762 134.133 56.0762 133.581V112.114C56.0762 111.562 56.5239 111.114 57.0762 111.114H74.3619C98.1333 112.181 108.343 75 74.3619 59.6095C41.2815 44.6269 37.8127 37.2114 2.92077 14.8416C2.07752 14.301 2.44747 12.9809 3.44915 12.9809H73.3619C73.9142 12.9809 74.3619 12.5332 74.3619 11.9809V1.79046C74.3619 1.23818 74.8096 0.790466 75.3619 0.790466H255C255.552 0.790466 256 1.23818 256 1.79046V12.1486C256 12.6309 255.634 13.0484 255.159 13.1374C142.043 34.3674 146.991 106.706 185.905 111.114H203.19C203.743 111.114 204.19 111.562 204.19 112.114V133.581C204.19 134.133 203.743 134.581 203.19 134.581H57.0762Z" fill="#343A4B"/>
</svg>
