<svg width="264" height="145" viewBox="0 0 264 145" fill="none" xmlns="http://www.w3.org/2000/svg">
<path fill-rule="evenodd" clip-rule="evenodd" d="M59.6231 139.581C59.0708 139.581 58.6231 139.133 58.6231 138.581V117.114C58.6231 116.562 59.0708 116.114 59.6231 116.114H76.9088C100.68 117.181 110.89 80 76.9088 64.6095C55.6678 54.9892 46.6355 48.4887 33.6538 39.1458L33.6538 39.1458C26.418 33.9383 17.9553 27.8477 5.46767 19.8416C4.62442 19.301 4.99438 17.981 5.99605 17.981H75.9088C76.4611 17.981 76.9088 17.5332 76.9088 16.981V6.79048C76.9088 6.2382 77.3565 5.79048 77.9088 5.79048H257.547C258.099 5.79048 258.547 6.2382 258.547 6.79048V17.1486C258.547 17.6309 258.18 18.0484 257.706 18.1374C144.59 39.3674 149.538 111.706 188.452 116.114H205.737C206.29 116.114 206.737 116.562 206.737 117.114V138.581C206.737 139.133 206.29 139.581 205.737 139.581H59.6231ZM122.737 113.79C122.737 114.343 123.184 114.79 123.737 114.79H138.217C138.77 114.79 139.217 114.343 139.217 113.79V51.8564C139.217 51.7962 139.223 51.7373 139.233 51.68L164.549 51.616C165.101 51.6146 165.547 51.1673 165.547 50.616V32.7905C165.547 32.2382 165.099 31.7905 164.547 31.7905H96.5469C95.9946 31.7905 95.5469 32.2382 95.5469 32.7905V50.7879C95.5469 51.3412 95.9962 51.7893 96.5494 51.7879L122.728 51.7218C122.734 51.7658 122.737 51.8108 122.737 51.8564V113.79Z" fill="#343A4B"/>
</svg>
